<svg width="628" height="408" viewBox="0 0 628 408" fill="none" xmlns="http://www.w3.org/2000/svg">
<rect x="0.5" y="0.5" width="627" height="407" fill="white"/>
<path d="M463.774 22H20V294H51.0642V46H463.774V22Z" fill="#C4C4C4"/>
<path d="M164.226 350H608V78H576.936V326H164.226V350Z" fill="#C4C4C4"/>
<g filter="url(#filter0_d)">
<path d="M113.88 122.976C113.976 127.872 114.072 133.056 114.168 138.528C114.36 143.904 114.504 149.328 114.6 154.8C114.696 160.272 114.744 165.744 114.744 171.216C114.84 176.592 114.888 181.776 114.888 186.768C114.888 195.792 114.792 204.768 114.6 213.696C114.504 222.624 114.264 231.696 113.88 240.912C117.432 240.912 120.552 240.912 123.24 240.912C126.024 241.008 128.472 241.056 130.584 241.056C132.696 241.152 134.568 241.248 136.2 241.344C137.928 241.44 139.512 241.536 140.952 241.632C144.888 241.824 147.432 242.496 148.584 243.648C149.832 244.8 150.456 246.24 150.456 247.968C150.456 248.928 150.36 249.744 150.168 250.416C150.072 251.184 149.688 251.856 149.016 252.432C148.344 253.008 147.384 253.488 146.136 253.872C144.888 254.256 143.112 254.544 140.808 254.736C138.024 254.928 135.432 255.072 133.032 255.168C130.632 255.264 128.04 255.312 125.256 255.312C119.016 255.312 114.168 254.688 110.712 253.44C107.352 252.192 104.856 250.032 103.224 246.96C101.688 243.984 100.776 239.952 100.488 234.864C100.296 229.872 100.2 223.584 100.2 216V147.888C100.2 140.304 100.296 134.016 100.488 129.024C100.776 123.936 101.688 119.904 103.224 116.928C104.856 113.856 107.352 111.696 110.712 110.448C114.168 109.2 119.016 108.576 125.256 108.576C128.04 108.576 130.632 108.624 133.032 108.72C135.432 108.816 138.024 108.96 140.808 109.152C143.112 109.344 144.888 109.632 146.136 110.016C147.384 110.4 148.344 110.88 149.016 111.456C149.688 112.032 150.072 112.704 150.168 113.472C150.36 114.144 150.456 114.96 150.456 115.92C150.456 117.648 149.832 119.088 148.584 120.24C147.432 121.392 144.888 122.064 140.952 122.256C139.512 122.352 137.928 122.448 136.2 122.544C134.568 122.64 132.696 122.736 130.584 122.832C128.472 122.832 126.024 122.88 123.24 122.976C120.552 122.976 117.432 122.976 113.88 122.976ZM213.122 132.048C216.29 132.048 219.554 132.336 222.914 132.912C226.274 133.488 229.346 134.352 232.13 135.504C234.914 136.56 237.218 137.904 239.042 139.536C240.866 141.168 241.778 143.04 241.778 145.152C241.778 147.36 241.202 149.04 240.05 150.192C238.898 151.344 237.458 151.92 235.73 151.92C234.098 151.92 232.562 151.632 231.122 151.056C229.778 150.48 228.242 149.856 226.514 149.184C224.786 148.512 222.722 147.888 220.322 147.312C217.922 146.736 214.898 146.448 211.25 146.448C207.218 146.448 203.426 147.408 199.874 149.328C196.418 151.152 193.346 153.744 190.658 157.104C187.97 160.368 185.858 164.256 184.322 168.768C182.786 173.28 182.018 178.176 182.018 183.456C182.018 189.888 182.834 195.456 184.466 200.16C186.098 204.864 188.21 208.752 190.802 211.824C193.49 214.896 196.466 217.2 199.73 218.736C203.09 220.176 206.45 220.896 209.81 220.896C215.282 220.896 219.602 220.128 222.77 218.592C226.034 216.96 228.626 214.896 230.546 212.4C230.642 210.384 230.69 207.984 230.69 205.2C230.69 202.416 230.69 199.392 230.69 196.128C230.69 194.88 230.594 193.92 230.402 193.248C230.21 192.48 229.73 191.904 228.962 191.52C228.194 191.136 227.042 190.896 225.506 190.8C224.066 190.704 222.098 190.656 219.602 190.656C216.53 190.656 214.034 190.272 212.114 189.504C210.194 188.64 209.234 186.864 209.234 184.176C209.234 182.256 209.714 180.72 210.674 179.568C211.73 178.32 213.842 177.6 217.01 177.408C217.586 177.408 218.498 177.408 219.746 177.408C221.09 177.312 222.482 177.264 223.922 177.264C225.458 177.264 226.946 177.264 228.386 177.264C229.826 177.264 230.978 177.264 231.842 177.264C234.722 177.264 237.026 177.552 238.754 178.128C240.482 178.608 242.018 179.76 243.362 181.584C244.034 182.544 244.418 184.224 244.514 186.624C244.706 189.024 244.802 191.808 244.802 194.976V232.128C244.802 234.72 244.082 236.64 242.642 237.888C241.298 239.136 239.714 239.76 237.89 239.76C235.682 239.76 233.858 239.184 232.418 238.032C231.074 236.976 230.402 235.248 230.402 232.848V227.232C227.906 230.112 224.93 232.176 221.474 233.424C218.114 234.672 213.842 235.296 208.658 235.296C203.378 235.296 198.194 234.24 193.106 232.128C188.018 230.016 183.506 226.896 179.57 222.768C175.634 218.544 172.418 213.312 169.922 207.072C167.522 200.736 166.322 193.392 166.322 185.04C166.322 176.688 167.522 169.248 169.922 162.72C172.418 156.192 175.778 150.672 180.002 146.16C184.226 141.552 189.17 138.048 194.834 135.648C200.498 133.248 206.594 132.048 213.122 132.048ZM326.272 227.232C323.2 223.008 320.272 218.832 317.488 214.704C314.8 210.48 311.872 205.872 308.704 200.88C305.632 195.888 302.08 190.368 298.048 184.32C294.112 178.176 289.36 171.024 283.792 162.864C283.792 170.064 283.792 176.544 283.792 182.304C283.792 187.968 283.744 193.248 283.648 198.144C283.552 203.04 283.456 207.648 283.36 211.968C283.264 216.288 283.12 220.608 282.928 224.928C282.832 227.232 282.592 229.008 282.208 230.256C281.92 231.504 281.488 232.464 280.912 233.136C280.336 233.808 279.664 234.192 278.896 234.288C278.224 234.48 277.408 234.576 276.448 234.576C274.72 234.576 273.28 234 272.128 232.848C270.976 231.6 270.304 229.008 270.112 225.072C269.632 214.512 269.344 203.952 269.248 193.392C269.248 182.736 269.248 171.744 269.248 160.416C269.248 153.984 269.296 148.944 269.392 145.296C269.584 141.648 269.92 138.912 270.4 137.088C270.976 135.264 271.696 134.112 272.56 133.632C273.52 133.152 274.768 132.912 276.304 132.912C277.84 132.912 279.856 134.112 282.352 136.512C284.848 138.816 287.584 141.888 290.56 145.728C293.536 149.568 296.704 153.984 300.064 158.976C303.52 163.968 306.928 169.104 310.288 174.384C313.648 179.664 316.864 184.896 319.936 190.08C323.104 195.264 325.984 199.968 328.576 204.192C328.48 199.68 328.432 194.736 328.432 189.36C328.432 183.888 328.432 177.84 328.432 171.216C328.432 163.632 328.48 157.392 328.576 152.496C328.672 147.504 328.912 143.568 329.296 140.688C329.776 137.808 330.496 135.792 331.456 134.64C332.416 133.488 333.76 132.912 335.488 132.912C337.12 132.912 338.56 133.44 339.808 134.496C341.056 135.552 341.776 138 341.968 141.84C342.16 145.296 342.304 148.368 342.4 151.056C342.496 153.744 342.592 156.432 342.688 159.12C342.784 161.712 342.832 164.448 342.832 167.328C342.832 170.112 342.832 173.28 342.832 176.832C342.832 181.152 342.832 185.28 342.832 189.216C342.832 193.152 342.784 197.04 342.688 200.88C342.592 204.72 342.496 208.608 342.4 212.544C342.304 216.48 342.16 220.608 341.968 224.928C341.872 227.232 341.632 229.008 341.248 230.256C340.96 231.504 340.528 232.464 339.952 233.136C339.376 233.808 338.704 234.192 337.936 234.288C337.264 234.48 336.448 234.576 335.488 234.576C333.856 234.576 332.464 234.096 331.312 233.136C330.16 232.176 328.48 230.208 326.272 227.232ZM407.324 209.52C402.908 199.824 398.972 190.464 395.516 181.44C392.156 172.32 389.276 164.208 386.876 157.104C384.668 169.008 382.796 181.008 381.26 193.104C379.82 205.2 377.948 216.768 375.644 227.808C375.068 230.304 374.012 231.984 372.476 232.848C370.94 233.616 369.644 234 368.588 234C366.86 234 365.468 233.472 364.412 232.416C363.452 231.36 362.972 230.016 362.972 228.384C362.972 226.176 363.212 222.816 363.692 218.304C364.268 213.696 364.94 208.512 365.708 202.752C366.572 196.992 367.532 190.944 368.588 184.608C369.644 178.272 370.7 172.176 371.756 166.32C372.908 160.368 373.964 154.992 374.924 150.192C375.98 145.392 376.892 141.696 377.66 139.104C378.908 134.688 381.452 132.48 385.292 132.48C387.596 132.48 389.564 133.632 391.196 135.936C392.828 138.144 394.556 141.6 396.38 146.304C398.3 150.912 400.556 156.768 403.148 163.872C405.836 170.976 409.292 179.328 413.516 188.928C417.644 179.328 420.956 171.024 423.452 164.016C426.044 156.912 428.204 151.056 429.932 146.448C431.756 141.744 433.484 138.288 435.116 136.08C436.748 133.776 438.764 132.624 441.164 132.624C443.372 132.624 445.052 133.2 446.204 134.352C447.356 135.408 448.22 137.04 448.796 139.248C449.468 141.936 450.284 145.68 451.244 150.48C452.204 155.184 453.212 160.464 454.268 166.32C455.42 172.08 456.524 178.128 457.58 184.464C458.636 190.8 459.596 196.848 460.46 202.608C461.324 208.368 461.996 213.6 462.476 218.304C463.052 222.912 463.34 226.464 463.34 228.96C463.34 230.496 462.812 231.744 461.756 232.704C460.7 233.568 459.356 234 457.724 234C456.668 234 455.372 233.616 453.836 232.848C452.3 231.984 451.244 230.304 450.668 227.808C449.516 222.336 448.46 216.672 447.5 210.816C446.636 204.96 445.772 199.056 444.908 193.104C444.14 187.056 443.372 181.056 442.604 175.104C441.836 169.056 441.02 163.056 440.156 157.104C438.908 160.944 437.468 165.168 435.836 169.776C434.204 174.384 432.476 179.04 430.652 183.744C428.828 188.352 426.956 192.912 425.036 197.424C423.116 201.936 421.244 206.016 419.42 209.664C418.748 210.912 417.836 211.872 416.684 212.544C415.628 213.12 414.524 213.408 413.372 213.408C412.124 213.408 410.924 213.12 409.772 212.544C408.716 211.872 407.9 210.864 407.324 209.52ZM512.92 122.976C509.368 122.976 506.2 122.976 503.416 122.976C500.728 122.88 498.328 122.832 496.216 122.832C494.104 122.736 492.184 122.64 490.456 122.544C488.824 122.448 487.288 122.352 485.848 122.256C481.912 122.064 479.32 121.392 478.072 120.24C476.92 119.088 476.344 117.648 476.344 115.92C476.344 114.96 476.392 114.144 476.488 113.472C476.68 112.704 477.112 112.032 477.784 111.456C478.456 110.88 479.416 110.4 480.664 110.016C481.912 109.632 483.688 109.344 485.992 109.152C488.776 108.96 491.368 108.816 493.768 108.72C496.168 108.624 498.76 108.576 501.544 108.576C507.784 108.576 512.584 109.2 515.944 110.448C519.4 111.696 521.896 113.856 523.432 116.928C525.064 119.904 525.976 123.936 526.168 129.024C526.456 134.016 526.6 140.304 526.6 147.888V216C526.6 223.584 526.456 229.872 526.168 234.864C525.976 239.952 525.064 243.984 523.432 246.96C521.896 250.032 519.4 252.192 515.944 253.44C512.584 254.688 507.784 255.312 501.544 255.312C498.76 255.312 496.168 255.264 493.768 255.168C491.368 255.072 488.776 254.928 485.992 254.736C483.688 254.544 481.912 254.256 480.664 253.872C479.416 253.488 478.456 253.008 477.784 252.432C477.112 251.856 476.68 251.184 476.488 250.416C476.392 249.744 476.344 248.928 476.344 247.968C476.344 246.24 476.92 244.8 478.072 243.648C479.32 242.496 481.912 241.824 485.848 241.632C487.288 241.536 488.824 241.44 490.456 241.344C492.184 241.248 494.104 241.152 496.216 241.056C498.328 241.056 500.728 241.008 503.416 240.912C506.2 240.912 509.368 240.912 512.92 240.912C512.536 231.696 512.248 222.624 512.056 213.696C511.96 204.768 511.912 195.792 511.912 186.768C511.912 181.776 511.912 176.592 511.912 171.216C512.008 165.744 512.104 160.272 512.2 154.8C512.296 149.328 512.392 143.904 512.488 138.528C512.584 133.056 512.728 127.872 512.92 122.976Z" fill="#5C7D96"/>
</g>
<path d="M106.584 372.267C106.6 373.049 106.615 373.877 106.63 374.751C106.661 375.61 106.684 376.476 106.699 377.35C106.715 378.224 106.722 379.098 106.722 379.972C106.738 380.831 106.745 381.659 106.745 382.456C106.745 383.897 106.73 385.331 106.699 386.757C106.684 388.183 106.646 389.632 106.584 391.104C107.152 391.104 107.65 391.104 108.079 391.104C108.524 391.119 108.915 391.127 109.252 391.127C109.59 391.142 109.889 391.158 110.149 391.173C110.425 391.188 110.678 391.204 110.908 391.219C111.537 391.25 111.943 391.357 112.127 391.541C112.327 391.725 112.426 391.955 112.426 392.231C112.426 392.384 112.411 392.515 112.38 392.622C112.365 392.745 112.304 392.852 112.196 392.944C112.089 393.036 111.936 393.113 111.736 393.174C111.537 393.235 111.253 393.281 110.885 393.312C110.441 393.343 110.027 393.366 109.643 393.381C109.26 393.396 108.846 393.404 108.401 393.404C107.405 393.404 106.63 393.304 106.078 393.105C105.542 392.906 105.143 392.561 104.882 392.07C104.637 391.595 104.491 390.951 104.445 390.138C104.415 389.341 104.399 388.336 104.399 387.125V376.246C104.399 375.035 104.415 374.03 104.445 373.233C104.491 372.42 104.637 371.776 104.882 371.301C105.143 370.81 105.542 370.465 106.078 370.266C106.63 370.067 107.405 369.967 108.401 369.967C108.846 369.967 109.26 369.975 109.643 369.99C110.027 370.005 110.441 370.028 110.885 370.059C111.253 370.09 111.537 370.136 111.736 370.197C111.936 370.258 112.089 370.335 112.196 370.427C112.304 370.519 112.365 370.626 112.38 370.749C112.411 370.856 112.426 370.987 112.426 371.14C112.426 371.416 112.327 371.646 112.127 371.83C111.943 372.014 111.537 372.121 110.908 372.152C110.678 372.167 110.425 372.183 110.149 372.198C109.889 372.213 109.59 372.229 109.252 372.244C108.915 372.244 108.524 372.252 108.079 372.267C107.65 372.267 107.152 372.267 106.584 372.267ZM122.436 373.716C122.942 373.716 123.463 373.762 124 373.854C124.536 373.946 125.027 374.084 125.472 374.268C125.916 374.437 126.284 374.651 126.576 374.912C126.867 375.173 127.013 375.472 127.013 375.809C127.013 376.162 126.921 376.43 126.737 376.614C126.553 376.798 126.323 376.89 126.047 376.89C125.786 376.89 125.541 376.844 125.311 376.752C125.096 376.66 124.851 376.56 124.575 376.453C124.299 376.346 123.969 376.246 123.586 376.154C123.202 376.062 122.719 376.016 122.137 376.016C121.493 376.016 120.887 376.169 120.32 376.476C119.768 376.767 119.277 377.181 118.848 377.718C118.418 378.239 118.081 378.86 117.836 379.581C117.59 380.302 117.468 381.084 117.468 381.927C117.468 382.954 117.598 383.844 117.859 384.595C118.119 385.346 118.457 385.967 118.871 386.458C119.3 386.949 119.775 387.317 120.297 387.562C120.833 387.792 121.37 387.907 121.907 387.907C122.781 387.907 123.471 387.784 123.977 387.539C124.498 387.278 124.912 386.949 125.219 386.55C125.234 386.228 125.242 385.845 125.242 385.4C125.242 384.955 125.242 384.472 125.242 383.951C125.242 383.752 125.226 383.598 125.196 383.491C125.165 383.368 125.088 383.276 124.966 383.215C124.843 383.154 124.659 383.115 124.414 383.1C124.184 383.085 123.869 383.077 123.471 383.077C122.98 383.077 122.581 383.016 122.275 382.893C121.968 382.755 121.815 382.471 121.815 382.042C121.815 381.735 121.891 381.49 122.045 381.306C122.213 381.107 122.551 380.992 123.057 380.961C123.149 380.961 123.294 380.961 123.494 380.961C123.708 380.946 123.931 380.938 124.161 380.938C124.406 380.938 124.644 380.938 124.874 380.938C125.104 380.938 125.288 380.938 125.426 380.938C125.886 380.938 126.254 380.984 126.53 381.076C126.806 381.153 127.051 381.337 127.266 381.628C127.373 381.781 127.434 382.05 127.45 382.433C127.48 382.816 127.496 383.261 127.496 383.767V389.701C127.496 390.115 127.381 390.422 127.151 390.621C126.936 390.82 126.683 390.92 126.392 390.92C126.039 390.92 125.748 390.828 125.518 390.644C125.303 390.475 125.196 390.199 125.196 389.816V388.919C124.797 389.379 124.322 389.709 123.77 389.908C123.233 390.107 122.551 390.207 121.723 390.207C120.879 390.207 120.051 390.038 119.239 389.701C118.426 389.364 117.705 388.865 117.077 388.206C116.448 387.531 115.934 386.696 115.536 385.699C115.152 384.687 114.961 383.514 114.961 382.18C114.961 380.846 115.152 379.658 115.536 378.615C115.934 377.572 116.471 376.691 117.146 375.97C117.82 375.234 118.61 374.674 119.515 374.291C120.419 373.908 121.393 373.716 122.436 373.716ZM136.092 372.267C135.525 372.267 135.019 372.267 134.574 372.267C134.145 372.252 133.762 372.244 133.424 372.244C133.087 372.229 132.78 372.213 132.504 372.198C132.244 372.183 131.998 372.167 131.768 372.152C131.14 372.121 130.726 372.014 130.526 371.83C130.342 371.646 130.25 371.416 130.25 371.14C130.25 370.987 130.258 370.856 130.273 370.749C130.304 370.626 130.373 370.519 130.48 370.427C130.588 370.335 130.741 370.258 130.94 370.197C131.14 370.136 131.423 370.09 131.791 370.059C132.236 370.028 132.65 370.005 133.033 369.99C133.417 369.975 133.831 369.967 134.275 369.967C135.272 369.967 136.039 370.067 136.575 370.266C137.127 370.465 137.526 370.81 137.771 371.301C138.032 371.776 138.178 372.42 138.208 373.233C138.254 374.03 138.277 375.035 138.277 376.246V387.125C138.277 388.336 138.254 389.341 138.208 390.138C138.178 390.951 138.032 391.595 137.771 392.07C137.526 392.561 137.127 392.906 136.575 393.105C136.039 393.304 135.272 393.404 134.275 393.404C133.831 393.404 133.417 393.396 133.033 393.381C132.65 393.366 132.236 393.343 131.791 393.312C131.423 393.281 131.14 393.235 130.94 393.174C130.741 393.113 130.588 393.036 130.48 392.944C130.373 392.852 130.304 392.745 130.273 392.622C130.258 392.515 130.25 392.384 130.25 392.231C130.25 391.955 130.342 391.725 130.526 391.541C130.726 391.357 131.14 391.25 131.768 391.219C131.998 391.204 132.244 391.188 132.504 391.173C132.78 391.158 133.087 391.142 133.424 391.127C133.762 391.127 134.145 391.119 134.574 391.104C135.019 391.104 135.525 391.104 136.092 391.104C136.031 389.632 135.985 388.183 135.954 386.757C135.939 385.331 135.931 383.897 135.931 382.456C135.931 381.659 135.931 380.831 135.931 379.972C135.947 379.098 135.962 378.224 135.977 377.35C135.993 376.476 136.008 375.61 136.023 374.751C136.039 373.877 136.062 373.049 136.092 372.267Z" fill="#5C7D96"/>
<path d="M151.644 390.092C151.399 390.092 151.2 390.054 151.046 389.977C150.908 389.885 150.801 389.77 150.724 389.632C150.648 389.494 150.594 389.333 150.563 389.149C150.533 388.95 150.51 388.743 150.494 388.528C150.111 389.003 149.613 389.402 148.999 389.724C148.401 390.046 147.635 390.207 146.699 390.207C146.101 390.207 145.488 390.123 144.859 389.954C144.246 389.77 143.686 389.463 143.18 389.034C142.674 388.589 142.26 387.999 141.938 387.263C141.616 386.527 141.455 385.599 141.455 384.48C141.455 383.606 141.563 382.786 141.777 382.019C141.992 381.252 142.314 380.585 142.743 380.018C143.188 379.435 143.74 378.975 144.399 378.638C145.059 378.301 145.833 378.132 146.722 378.132C147.504 378.132 148.202 378.278 148.815 378.569C149.429 378.845 149.981 379.305 150.471 379.949C150.471 379.765 150.479 379.581 150.494 379.397C150.51 379.198 150.548 379.021 150.609 378.868C150.686 378.699 150.801 378.569 150.954 378.477C151.108 378.37 151.315 378.316 151.575 378.316C151.805 378.316 152.02 378.408 152.219 378.592C152.419 378.776 152.534 379.175 152.564 379.788C152.61 380.601 152.641 381.329 152.656 381.973C152.687 382.617 152.702 383.284 152.702 383.974C152.702 384.817 152.695 385.592 152.679 386.297C152.664 387.002 152.626 387.754 152.564 388.551C152.534 388.904 152.488 389.187 152.426 389.402C152.38 389.601 152.319 389.755 152.242 389.862C152.166 389.954 152.074 390.015 151.966 390.046C151.859 390.077 151.752 390.092 151.644 390.092ZM150.402 384.25C150.402 383.453 150.28 382.801 150.034 382.295C149.804 381.789 149.505 381.398 149.137 381.122C148.785 380.831 148.401 380.631 147.987 380.524C147.573 380.417 147.19 380.363 146.837 380.363C146.285 380.363 145.81 380.463 145.411 380.662C145.028 380.861 144.714 381.137 144.468 381.49C144.223 381.827 144.039 382.234 143.916 382.709C143.809 383.169 143.755 383.675 143.755 384.227C143.755 385.576 144.047 386.573 144.629 387.217C145.227 387.861 146.032 388.183 147.044 388.183C147.642 388.183 148.148 388.083 148.562 387.884C148.992 387.669 149.337 387.386 149.597 387.033C149.873 386.68 150.073 386.266 150.195 385.791C150.333 385.3 150.402 384.787 150.402 384.25ZM158.757 388.505C158.711 387.539 158.68 386.397 158.665 385.078C158.665 383.744 158.665 382.234 158.665 380.547C158.512 380.562 158.328 380.57 158.113 380.57C157.914 380.57 157.753 380.57 157.63 380.57C157.354 380.57 157.101 380.562 156.871 380.547C156.656 380.532 156.465 380.486 156.296 380.409C156.127 380.332 155.997 380.225 155.905 380.087C155.813 379.934 155.767 379.727 155.767 379.466C155.767 378.73 156.319 378.362 157.423 378.362C157.592 378.362 157.799 378.362 158.044 378.362C158.289 378.362 158.496 378.377 158.665 378.408C158.665 377.595 158.68 376.944 158.711 376.453C158.742 375.962 158.795 375.587 158.872 375.326C158.964 375.05 159.079 374.874 159.217 374.797C159.37 374.705 159.562 374.659 159.792 374.659C160.037 374.659 160.237 374.743 160.39 374.912C160.543 375.081 160.658 375.295 160.735 375.556C160.827 375.817 160.881 376.108 160.896 376.43C160.927 376.752 160.942 377.066 160.942 377.373C160.942 377.588 160.934 377.787 160.919 377.971C160.919 378.14 160.919 378.293 160.919 378.431C161.134 378.37 161.356 378.339 161.586 378.339C161.816 378.324 162.038 378.316 162.253 378.316C162.82 378.316 163.257 378.408 163.564 378.592C163.871 378.761 164.024 379.044 164.024 379.443C164.024 379.688 163.97 379.888 163.863 380.041C163.756 380.179 163.61 380.286 163.426 380.363C163.257 380.44 163.05 380.493 162.805 380.524C162.575 380.539 162.322 380.547 162.046 380.547C161.893 380.547 161.716 380.547 161.517 380.547C161.318 380.547 161.134 380.532 160.965 380.501C160.965 381.314 160.965 382.057 160.965 382.732C160.965 383.407 160.957 384.058 160.942 384.687C160.927 385.3 160.911 385.914 160.896 386.527C160.881 387.14 160.858 387.792 160.827 388.482C160.812 388.85 160.773 389.134 160.712 389.333C160.666 389.532 160.597 389.686 160.505 389.793C160.413 389.9 160.306 389.969 160.183 390C160.076 390.015 159.945 390.023 159.792 390.023C159.516 390.023 159.278 389.931 159.079 389.747C158.895 389.548 158.788 389.134 158.757 388.505ZM171.349 377.994C171.671 377.994 172.077 378.025 172.568 378.086C173.058 378.132 173.526 378.232 173.971 378.385C174.415 378.523 174.799 378.722 175.121 378.983C175.443 379.244 175.604 379.573 175.604 379.972C175.604 380.202 175.535 380.401 175.397 380.57C175.274 380.739 175.075 380.823 174.799 380.823C174.599 380.823 174.369 380.792 174.109 380.731C173.863 380.67 173.587 380.601 173.281 380.524C172.989 380.432 172.667 380.355 172.315 380.294C171.977 380.233 171.617 380.202 171.234 380.202C170.59 380.202 170.061 380.302 169.647 380.501C169.248 380.7 169.049 381.015 169.049 381.444C169.049 381.689 169.118 381.896 169.256 382.065C169.409 382.234 169.608 382.387 169.854 382.525C170.114 382.648 170.413 382.755 170.751 382.847C171.103 382.939 171.471 383.031 171.855 383.123C172.33 383.246 172.798 383.384 173.258 383.537C173.733 383.69 174.155 383.905 174.523 384.181C174.891 384.442 175.19 384.779 175.42 385.193C175.65 385.592 175.765 386.09 175.765 386.688C175.765 387.823 175.335 388.727 174.477 389.402C173.618 390.061 172.353 390.391 170.682 390.391C170.314 390.391 169.877 390.36 169.371 390.299C168.865 390.253 168.389 390.153 167.945 390C167.5 389.862 167.117 389.663 166.795 389.402C166.488 389.126 166.335 388.766 166.335 388.321C166.335 388.014 166.404 387.784 166.542 387.631C166.695 387.462 166.879 387.378 167.094 387.378C167.262 387.378 167.439 387.432 167.623 387.539C167.807 387.646 168.029 387.761 168.29 387.884C168.55 388.007 168.865 388.122 169.233 388.229C169.601 388.336 170.053 388.39 170.59 388.39C170.789 388.39 171.05 388.382 171.372 388.367C171.694 388.336 172.008 388.267 172.315 388.16C172.637 388.053 172.905 387.907 173.12 387.723C173.35 387.524 173.465 387.248 173.465 386.895C173.465 386.619 173.388 386.389 173.235 386.205C173.081 386.006 172.874 385.837 172.614 385.699C172.353 385.561 172.046 385.446 171.694 385.354C171.356 385.247 170.996 385.139 170.613 385.032C170.168 384.909 169.716 384.771 169.256 384.618C168.811 384.465 168.405 384.265 168.037 384.02C167.669 383.775 167.37 383.468 167.14 383.1C166.91 382.717 166.795 382.249 166.795 381.697C166.795 381.176 166.902 380.693 167.117 380.248C167.331 379.788 167.638 379.389 168.037 379.052C168.435 378.715 168.911 378.454 169.463 378.27C170.03 378.086 170.659 377.994 171.349 377.994ZM181.79 374.958C181.79 375.878 181.759 376.844 181.698 377.856C181.652 378.853 181.59 379.826 181.514 380.777C181.713 380.363 181.974 380.01 182.296 379.719C182.618 379.412 182.97 379.167 183.354 378.983C183.752 378.799 184.166 378.661 184.596 378.569C185.025 378.477 185.439 378.431 185.838 378.431C186.528 378.431 187.172 378.561 187.77 378.822C188.383 379.067 188.912 379.435 189.357 379.926C189.817 380.401 190.169 380.999 190.415 381.72C190.675 382.425 190.806 383.238 190.806 384.158C190.806 385.047 190.675 385.86 190.415 386.596C190.154 387.332 189.763 387.968 189.242 388.505C188.736 389.026 188.099 389.433 187.333 389.724C186.581 390.015 185.715 390.161 184.734 390.161C183.4 390.161 182.349 389.893 181.583 389.356C180.831 388.819 180.272 388.106 179.904 387.217C179.536 386.312 179.306 385.277 179.214 384.112C179.137 382.947 179.099 381.728 179.099 380.455C179.099 379.167 179.122 378.002 179.168 376.959C179.214 375.916 179.283 375.073 179.375 374.429C179.467 373.846 179.62 373.432 179.835 373.187C180.049 372.942 180.333 372.819 180.686 372.819C180.946 372.819 181.153 372.88 181.307 373.003C181.46 373.11 181.567 373.264 181.629 373.463C181.705 373.662 181.751 373.892 181.767 374.153C181.782 374.398 181.79 374.667 181.79 374.958ZM185.194 380.708C184.749 380.708 184.32 380.785 183.906 380.938C183.507 381.076 183.147 381.298 182.825 381.605C182.518 381.912 182.273 382.303 182.089 382.778C181.905 383.238 181.813 383.798 181.813 384.457C181.813 385.622 182.096 386.512 182.664 387.125C183.246 387.723 184.021 388.022 184.987 388.022C185.385 388.022 185.792 387.968 186.206 387.861C186.62 387.738 186.995 387.539 187.333 387.263C187.67 386.972 187.946 386.588 188.161 386.113C188.375 385.638 188.483 385.047 188.483 384.342C188.483 383.713 188.391 383.169 188.207 382.709C188.038 382.249 187.8 381.873 187.494 381.582C187.187 381.275 186.834 381.053 186.436 380.915C186.037 380.777 185.623 380.708 185.194 380.708ZM196.807 394.209C196.608 394.562 196.416 394.822 196.232 394.991C196.064 395.16 195.864 395.244 195.634 395.244C195.42 395.244 195.205 395.175 194.99 395.037C194.776 394.899 194.668 394.707 194.668 394.462C194.668 394.232 194.745 393.902 194.898 393.473C195.067 393.044 195.266 392.576 195.496 392.07C195.742 391.564 195.995 391.043 196.255 390.506C196.516 389.969 196.754 389.479 196.968 389.034L197.129 388.689C196.669 387.784 196.194 386.818 195.703 385.791C195.228 384.764 194.791 383.79 194.392 382.87C193.994 381.95 193.664 381.153 193.403 380.478C193.158 379.788 193.035 379.336 193.035 379.121C193.035 378.922 193.112 378.753 193.265 378.615C193.434 378.462 193.641 378.385 193.886 378.385C194.101 378.385 194.308 378.431 194.507 378.523C194.707 378.6 194.891 378.784 195.059 379.075C195.305 379.535 195.558 380.064 195.818 380.662C196.094 381.245 196.363 381.858 196.623 382.502C196.899 383.146 197.175 383.798 197.451 384.457C197.743 385.116 198.034 385.753 198.325 386.366C198.663 385.737 199.023 385.078 199.406 384.388C199.79 383.698 200.158 383.031 200.51 382.387C200.878 381.743 201.216 381.153 201.522 380.616C201.829 380.064 202.09 379.604 202.304 379.236C202.519 378.883 202.734 378.63 202.948 378.477C203.163 378.324 203.385 378.247 203.615 378.247C203.769 378.247 203.922 378.316 204.075 378.454C204.229 378.577 204.305 378.745 204.305 378.96C204.305 379.282 204.16 379.803 203.868 380.524C203.592 381.229 203.232 382.05 202.787 382.985C202.343 383.92 201.837 384.925 201.269 385.998C200.717 387.056 200.165 388.099 199.613 389.126C199.061 390.138 198.532 391.089 198.026 391.978C197.536 392.867 197.129 393.611 196.807 394.209ZM256.372 385.768C255.835 385.768 255.268 385.73 254.67 385.653C254.087 385.561 253.451 385.377 252.761 385.101C252.899 386.036 253.282 386.742 253.911 387.217C254.555 387.692 255.475 387.93 256.671 387.93C257.1 387.93 257.484 387.907 257.821 387.861C258.174 387.8 258.48 387.738 258.741 387.677C259.002 387.6 259.232 387.539 259.431 387.493C259.63 387.432 259.814 387.401 259.983 387.401C260.198 387.401 260.405 387.47 260.604 387.608C260.803 387.731 260.903 387.945 260.903 388.252C260.903 388.635 260.742 388.95 260.42 389.195C260.113 389.44 259.73 389.64 259.27 389.793C258.825 389.931 258.35 390.023 257.844 390.069C257.338 390.13 256.893 390.161 256.51 390.161C255.605 390.161 254.77 390.038 254.003 389.793C253.252 389.548 252.6 389.18 252.048 388.689C251.496 388.183 251.067 387.562 250.76 386.826C250.453 386.09 250.3 385.231 250.3 384.25C250.3 383.299 250.446 382.456 250.737 381.72C251.044 380.984 251.458 380.363 251.979 379.857C252.5 379.351 253.114 378.968 253.819 378.707C254.54 378.446 255.314 378.316 256.142 378.316C256.786 378.316 257.407 378.4 258.005 378.569C258.618 378.738 259.155 378.991 259.615 379.328C260.09 379.665 260.466 380.095 260.742 380.616C261.033 381.122 261.179 381.72 261.179 382.41C261.179 383.023 261.064 383.545 260.834 383.974C260.604 384.403 260.274 384.748 259.845 385.009C259.431 385.27 258.925 385.461 258.327 385.584C257.744 385.707 257.093 385.768 256.372 385.768ZM256.211 380.432C255.797 380.432 255.398 380.486 255.015 380.593C254.632 380.685 254.279 380.846 253.957 381.076C253.65 381.291 253.39 381.582 253.175 381.95C252.96 382.303 252.815 382.747 252.738 383.284C253.321 383.545 253.888 383.729 254.44 383.836C254.992 383.928 255.575 383.974 256.188 383.974C257.093 383.974 257.76 383.867 258.189 383.652C258.634 383.422 258.856 383.016 258.856 382.433C258.856 381.896 258.649 381.429 258.235 381.03C257.836 380.631 257.162 380.432 256.211 380.432ZM266.726 388.505C266.68 387.539 266.649 386.397 266.634 385.078C266.634 383.744 266.634 382.234 266.634 380.547C266.48 380.562 266.296 380.57 266.082 380.57C265.882 380.57 265.721 380.57 265.599 380.57C265.323 380.57 265.07 380.562 264.84 380.547C264.625 380.532 264.433 380.486 264.265 380.409C264.096 380.332 263.966 380.225 263.874 380.087C263.782 379.934 263.736 379.727 263.736 379.466C263.736 378.73 264.288 378.362 265.392 378.362C265.56 378.362 265.767 378.362 266.013 378.362C266.258 378.362 266.465 378.377 266.634 378.408C266.634 377.595 266.649 376.944 266.68 376.453C266.71 375.962 266.764 375.587 266.841 375.326C266.933 375.05 267.048 374.874 267.186 374.797C267.339 374.705 267.531 374.659 267.761 374.659C268.006 374.659 268.205 374.743 268.359 374.912C268.512 375.081 268.627 375.295 268.704 375.556C268.796 375.817 268.849 376.108 268.865 376.43C268.895 376.752 268.911 377.066 268.911 377.373C268.911 377.588 268.903 377.787 268.888 377.971C268.888 378.14 268.888 378.293 268.888 378.431C269.102 378.37 269.325 378.339 269.555 378.339C269.785 378.324 270.007 378.316 270.222 378.316C270.789 378.316 271.226 378.408 271.533 378.592C271.839 378.761 271.993 379.044 271.993 379.443C271.993 379.688 271.939 379.888 271.832 380.041C271.724 380.179 271.579 380.286 271.395 380.363C271.226 380.44 271.019 380.493 270.774 380.524C270.544 380.539 270.291 380.547 270.015 380.547C269.861 380.547 269.685 380.547 269.486 380.547C269.286 380.547 269.102 380.532 268.934 380.501C268.934 381.314 268.934 382.057 268.934 382.732C268.934 383.407 268.926 384.058 268.911 384.687C268.895 385.3 268.88 385.914 268.865 386.527C268.849 387.14 268.826 387.792 268.796 388.482C268.78 388.85 268.742 389.134 268.681 389.333C268.635 389.532 268.566 389.686 268.474 389.793C268.382 389.9 268.274 389.969 268.152 390C268.044 390.015 267.914 390.023 267.761 390.023C267.485 390.023 267.247 389.931 267.048 389.747C266.864 389.548 266.756 389.134 266.726 388.505ZM275.407 388.666C275.392 388.114 275.377 387.47 275.361 386.734C275.346 385.998 275.331 385.201 275.315 384.342C275.315 383.483 275.308 382.579 275.292 381.628C275.292 380.677 275.292 379.704 275.292 378.707C275.292 377.618 275.3 376.683 275.315 375.901C275.331 375.119 275.369 374.475 275.43 373.969C275.507 373.463 275.622 373.095 275.775 372.865C275.929 372.62 276.143 372.497 276.419 372.497C276.68 372.497 276.91 372.581 277.109 372.75C277.309 372.919 277.424 373.31 277.454 373.923C277.516 375.027 277.554 376.177 277.569 377.373C277.585 378.554 277.592 379.719 277.592 380.869C277.592 381.559 277.592 382.226 277.592 382.87C277.592 383.499 277.585 384.127 277.569 384.756C277.554 385.369 277.539 385.998 277.523 386.642C277.508 387.286 277.485 387.953 277.454 388.643C277.439 389.011 277.401 389.295 277.339 389.494C277.293 389.693 277.224 389.847 277.132 389.954C277.04 390.061 276.933 390.123 276.81 390.138C276.703 390.169 276.573 390.184 276.419 390.184C276.143 390.184 275.913 390.092 275.729 389.908C275.545 389.709 275.438 389.295 275.407 388.666ZM281.954 388.574C281.923 388.007 281.893 387.363 281.862 386.642C281.847 385.906 281.839 385.101 281.839 384.227C281.839 383.138 281.847 382.211 281.862 381.444C281.877 380.662 281.916 380.026 281.977 379.535C282.054 379.029 282.169 378.661 282.322 378.431C282.475 378.186 282.69 378.063 282.966 378.063C283.227 378.063 283.457 378.155 283.656 378.339C283.855 378.523 283.97 378.922 284.001 379.535C284.093 381.145 284.139 382.701 284.139 384.204C284.139 384.971 284.124 385.691 284.093 386.366C284.062 387.025 284.032 387.754 284.001 388.551C283.986 388.919 283.947 389.203 283.886 389.402C283.84 389.601 283.771 389.755 283.679 389.862C283.587 389.969 283.48 390.031 283.357 390.046C283.25 390.077 283.119 390.092 282.966 390.092C282.69 390.092 282.46 390 282.276 389.816C282.092 389.617 281.985 389.203 281.954 388.574ZM282.989 373.9C283.342 373.9 283.664 374.038 283.955 374.314C284.262 374.59 284.415 374.92 284.415 375.303C284.415 375.671 284.262 375.993 283.955 376.269C283.648 376.53 283.303 376.66 282.92 376.66C282.598 376.66 282.291 376.53 282 376.269C281.724 375.993 281.586 375.656 281.586 375.257C281.586 374.889 281.724 374.575 282 374.314C282.291 374.038 282.621 373.9 282.989 373.9ZM288.913 380.662C288.745 380.677 288.576 380.693 288.407 380.708C288.254 380.708 288.101 380.708 287.947 380.708C287.441 380.708 287.066 380.631 286.82 380.478C286.56 380.309 286.429 379.995 286.429 379.535C286.429 379.182 286.529 378.906 286.728 378.707C286.912 378.492 287.288 378.385 287.855 378.385C288.208 378.385 288.568 378.408 288.936 378.454V377.12C288.936 376.507 289.005 375.924 289.143 375.372C289.281 374.82 289.496 374.337 289.787 373.923C290.079 373.494 290.454 373.156 290.914 372.911C291.39 372.65 291.965 372.52 292.639 372.52C293.253 372.52 293.682 372.612 293.927 372.796C294.173 372.965 294.295 373.248 294.295 373.647C294.295 374.046 294.134 374.291 293.812 374.383C293.49 374.475 293.122 374.521 292.708 374.521C292.202 374.521 291.819 374.743 291.558 375.188C291.313 375.633 291.19 376.177 291.19 376.821V378.431C291.39 378.385 291.581 378.362 291.765 378.362C291.965 378.347 292.172 378.339 292.386 378.339C292.954 378.339 293.352 378.431 293.582 378.615C293.828 378.799 293.95 379.09 293.95 379.489C293.95 379.995 293.789 380.325 293.467 380.478C293.145 380.616 292.716 380.685 292.179 380.685C292.041 380.685 291.88 380.685 291.696 380.685C291.528 380.685 291.359 380.67 291.19 380.639V388.551C291.19 388.919 291.16 389.203 291.098 389.402C291.037 389.601 290.953 389.755 290.845 389.862C290.738 389.969 290.615 390.031 290.477 390.046C290.339 390.077 290.194 390.092 290.04 390.092C289.902 390.092 289.764 390.069 289.626 390.023C289.488 389.992 289.366 389.923 289.258 389.816C289.166 389.693 289.082 389.532 289.005 389.333C288.944 389.134 288.913 388.881 288.913 388.574V380.662ZM299.216 394.209C299.016 394.562 298.825 394.822 298.641 394.991C298.472 395.16 298.273 395.244 298.043 395.244C297.828 395.244 297.613 395.175 297.399 395.037C297.184 394.899 297.077 394.707 297.077 394.462C297.077 394.232 297.153 393.902 297.307 393.473C297.475 393.044 297.675 392.576 297.905 392.07C298.15 391.564 298.403 391.043 298.664 390.506C298.924 389.969 299.162 389.479 299.377 389.034L299.538 388.689C299.078 387.784 298.602 386.818 298.112 385.791C297.636 384.764 297.199 383.79 296.801 382.87C296.402 381.95 296.072 381.153 295.812 380.478C295.566 379.788 295.444 379.336 295.444 379.121C295.444 378.922 295.52 378.753 295.674 378.615C295.842 378.462 296.049 378.385 296.295 378.385C296.509 378.385 296.716 378.431 296.916 378.523C297.115 378.6 297.299 378.784 297.468 379.075C297.713 379.535 297.966 380.064 298.227 380.662C298.503 381.245 298.771 381.858 299.032 382.502C299.308 383.146 299.584 383.798 299.86 384.457C300.151 385.116 300.442 385.753 300.734 386.366C301.071 385.737 301.431 385.078 301.815 384.388C302.198 383.698 302.566 383.031 302.919 382.387C303.287 381.743 303.624 381.153 303.931 380.616C304.237 380.064 304.498 379.604 304.713 379.236C304.927 378.883 305.142 378.63 305.357 378.477C305.571 378.324 305.794 378.247 306.024 378.247C306.177 378.247 306.33 378.316 306.484 378.454C306.637 378.577 306.714 378.745 306.714 378.96C306.714 379.282 306.568 379.803 306.277 380.524C306.001 381.229 305.64 382.05 305.196 382.985C304.751 383.92 304.245 384.925 303.678 385.998C303.126 387.056 302.574 388.099 302.022 389.126C301.47 390.138 300.941 391.089 300.435 391.978C299.944 392.867 299.538 393.611 299.216 394.209ZM316.479 373.716C316.985 373.716 317.491 373.762 317.997 373.854C318.518 373.931 318.986 374.061 319.4 374.245C319.814 374.414 320.151 374.628 320.412 374.889C320.688 375.134 320.826 375.426 320.826 375.763C320.826 376.116 320.734 376.384 320.55 376.568C320.366 376.752 320.136 376.844 319.86 376.844C319.599 376.844 319.369 376.806 319.17 376.729C318.971 376.637 318.741 376.537 318.48 376.43C318.235 376.323 317.936 376.231 317.583 376.154C317.23 376.062 316.763 376.016 316.18 376.016C315.597 376.016 315.038 376.169 314.501 376.476C313.98 376.767 313.52 377.181 313.121 377.718C312.738 378.239 312.431 378.86 312.201 379.581C311.971 380.302 311.856 381.084 311.856 381.927C311.856 382.97 311.986 383.867 312.247 384.618C312.523 385.369 312.876 385.99 313.305 386.481C313.734 386.956 314.217 387.317 314.754 387.562C315.306 387.792 315.858 387.907 316.41 387.907C317.069 387.907 317.621 387.838 318.066 387.7C318.511 387.562 318.886 387.409 319.193 387.24C319.515 387.071 319.791 386.918 320.021 386.78C320.251 386.642 320.473 386.573 320.688 386.573C320.949 386.573 321.156 386.65 321.309 386.803C321.462 386.941 321.539 387.194 321.539 387.562C321.539 387.869 321.416 388.183 321.171 388.505C320.941 388.812 320.596 389.095 320.136 389.356C319.691 389.601 319.155 389.808 318.526 389.977C317.897 390.13 317.192 390.207 316.41 390.207C315.551 390.207 314.693 390.038 313.834 389.701C312.991 389.364 312.232 388.865 311.557 388.206C310.898 387.531 310.361 386.696 309.947 385.699C309.533 384.687 309.326 383.514 309.326 382.18C309.326 380.846 309.51 379.658 309.878 378.615C310.261 377.572 310.775 376.691 311.419 375.97C312.078 375.234 312.837 374.674 313.696 374.291C314.57 373.908 315.498 373.716 316.479 373.716ZM331.211 386.09C330.505 384.541 329.877 383.046 329.325 381.605C328.788 380.148 328.328 378.853 327.945 377.718C327.592 379.619 327.293 381.536 327.048 383.468C326.818 385.4 326.519 387.248 326.151 389.011C326.059 389.41 325.89 389.678 325.645 389.816C325.399 389.939 325.192 390 325.024 390C324.748 390 324.525 389.916 324.357 389.747C324.203 389.578 324.127 389.364 324.127 389.103C324.127 388.75 324.165 388.214 324.242 387.493C324.334 386.757 324.441 385.929 324.564 385.009C324.702 384.089 324.855 383.123 325.024 382.111C325.192 381.099 325.361 380.125 325.53 379.19C325.714 378.239 325.882 377.381 326.036 376.614C326.204 375.847 326.35 375.257 326.473 374.843C326.672 374.138 327.078 373.785 327.692 373.785C328.06 373.785 328.374 373.969 328.635 374.337C328.895 374.69 329.171 375.242 329.463 375.993C329.769 376.729 330.13 377.664 330.544 378.799C330.973 379.934 331.525 381.268 332.2 382.801C332.859 381.268 333.388 379.941 333.787 378.822C334.201 377.687 334.546 376.752 334.822 376.016C335.113 375.265 335.389 374.713 335.65 374.36C335.91 373.992 336.232 373.808 336.616 373.808C336.968 373.808 337.237 373.9 337.421 374.084C337.605 374.253 337.743 374.513 337.835 374.866C337.942 375.295 338.072 375.893 338.226 376.66C338.379 377.411 338.54 378.255 338.709 379.19C338.893 380.11 339.069 381.076 339.238 382.088C339.406 383.1 339.56 384.066 339.698 384.986C339.836 385.906 339.943 386.742 340.02 387.493C340.112 388.229 340.158 388.796 340.158 389.195C340.158 389.44 340.073 389.64 339.905 389.793C339.736 389.931 339.521 390 339.261 390C339.092 390 338.885 389.939 338.64 389.816C338.394 389.678 338.226 389.41 338.134 389.011C337.95 388.137 337.781 387.232 337.628 386.297C337.49 385.362 337.352 384.419 337.214 383.468C337.091 382.502 336.968 381.544 336.846 380.593C336.723 379.627 336.593 378.669 336.455 377.718C336.255 378.331 336.025 379.006 335.765 379.742C335.504 380.478 335.228 381.222 334.937 381.973C334.645 382.709 334.346 383.437 334.04 384.158C333.733 384.879 333.434 385.53 333.143 386.113C333.035 386.312 332.89 386.466 332.706 386.573C332.537 386.665 332.361 386.711 332.177 386.711C331.977 386.711 331.786 386.665 331.602 386.573C331.433 386.466 331.303 386.305 331.211 386.09ZM348.997 373.762C349.426 373.762 349.917 373.8 350.469 373.877C351.036 373.938 351.565 374.061 352.056 374.245C352.546 374.414 352.96 374.644 353.298 374.935C353.635 375.211 353.804 375.556 353.804 375.97C353.804 376.215 353.735 376.422 353.597 376.591C353.459 376.76 353.236 376.844 352.93 376.844C352.7 376.844 352.462 376.798 352.217 376.706C351.987 376.614 351.718 376.522 351.412 376.43C351.12 376.323 350.775 376.223 350.377 376.131C349.993 376.039 349.541 375.993 349.02 375.993C348.008 375.993 347.256 376.177 346.766 376.545C346.29 376.898 346.053 377.388 346.053 378.017C346.053 378.446 346.16 378.807 346.375 379.098C346.589 379.389 346.873 379.642 347.226 379.857C347.594 380.056 348 380.225 348.445 380.363C348.905 380.501 349.372 380.631 349.848 380.754C350.384 380.892 350.913 381.061 351.435 381.26C351.971 381.459 352.447 381.72 352.861 382.042C353.275 382.364 353.604 382.77 353.85 383.261C354.11 383.752 354.241 384.373 354.241 385.124C354.241 385.906 354.095 386.611 353.804 387.24C353.512 387.853 353.114 388.382 352.608 388.827C352.102 389.256 351.496 389.594 350.791 389.839C350.085 390.069 349.319 390.184 348.491 390.184C348.031 390.184 347.494 390.138 346.881 390.046C346.267 389.969 345.685 389.831 345.133 389.632C344.581 389.417 344.113 389.141 343.73 388.804C343.346 388.451 343.155 388.022 343.155 387.516C343.155 387.209 343.231 386.964 343.385 386.78C343.553 386.596 343.799 386.504 344.121 386.504C344.381 386.504 344.596 386.558 344.765 386.665C344.933 386.757 345.079 386.864 345.202 386.987C345.662 387.386 346.183 387.654 346.766 387.792C347.348 387.93 347.946 387.999 348.56 387.999C348.912 387.999 349.28 387.976 349.664 387.93C350.062 387.869 350.423 387.754 350.745 387.585C351.067 387.416 351.335 387.179 351.55 386.872C351.764 386.55 351.872 386.121 351.872 385.584C351.872 385.093 351.772 384.695 351.573 384.388C351.389 384.066 351.136 383.798 350.814 383.583C350.492 383.368 350.108 383.192 349.664 383.054C349.234 382.916 348.767 382.778 348.261 382.64C347.693 382.487 347.134 382.318 346.582 382.134C346.03 381.95 345.539 381.705 345.11 381.398C344.68 381.076 344.328 380.677 344.052 380.202C343.791 379.711 343.661 379.09 343.661 378.339C343.661 377.588 343.799 376.928 344.075 376.361C344.351 375.794 344.726 375.318 345.202 374.935C345.677 374.552 346.237 374.26 346.881 374.061C347.54 373.862 348.245 373.762 348.997 373.762ZM409.594 378.339C410.468 378.339 411.25 378.477 411.94 378.753C412.63 379.014 413.213 379.389 413.688 379.88C414.179 380.371 414.555 380.969 414.815 381.674C415.076 382.379 415.206 383.169 415.206 384.043C415.206 385.009 415.053 385.875 414.746 386.642C414.455 387.409 414.041 388.06 413.504 388.597C412.983 389.134 412.354 389.548 411.618 389.839C410.898 390.13 410.108 390.276 409.249 390.276C408.314 390.276 407.486 390.115 406.765 389.793C406.06 389.471 405.462 389.034 404.971 388.482C404.496 387.93 404.136 387.294 403.89 386.573C403.645 385.852 403.522 385.093 403.522 384.296C403.522 383.422 403.66 382.625 403.936 381.904C404.228 381.168 404.634 380.539 405.155 380.018C405.692 379.481 406.336 379.067 407.087 378.776C407.839 378.485 408.674 378.339 409.594 378.339ZM409.341 388.16C409.97 388.16 410.507 388.053 410.951 387.838C411.396 387.608 411.756 387.309 412.032 386.941C412.324 386.573 412.531 386.159 412.653 385.699C412.791 385.224 412.86 384.733 412.86 384.227C412.86 383.706 412.791 383.223 412.653 382.778C412.531 382.318 412.331 381.919 412.055 381.582C411.795 381.245 411.45 380.984 411.02 380.8C410.606 380.601 410.108 380.501 409.525 380.501C408.927 380.501 408.406 380.601 407.961 380.8C407.517 380.999 407.141 381.275 406.834 381.628C406.543 381.965 406.321 382.372 406.167 382.847C406.014 383.322 405.937 383.836 405.937 384.388C405.937 385.507 406.221 386.42 406.788 387.125C407.371 387.815 408.222 388.16 409.341 388.16ZM428.459 389.954C428.153 389.954 427.892 389.831 427.677 389.586C427.478 389.341 427.34 389.057 427.263 388.735C427.079 388.904 426.865 389.072 426.619 389.241C426.389 389.41 426.121 389.571 425.814 389.724C425.508 389.862 425.17 389.977 424.802 390.069C424.434 390.161 424.036 390.207 423.606 390.207C423.085 390.207 422.502 390.123 421.858 389.954C421.23 389.77 420.632 389.463 420.064 389.034C419.512 388.589 419.045 387.991 418.661 387.24C418.293 386.489 418.109 385.546 418.109 384.411C418.109 383.445 418.255 382.586 418.546 381.835C418.838 381.084 419.244 380.455 419.765 379.949C420.302 379.428 420.931 379.037 421.651 378.776C422.387 378.5 423.185 378.362 424.043 378.362C424.779 378.362 425.362 378.446 425.791 378.615C426.221 378.784 426.558 378.983 426.803 379.213C426.803 378.799 426.803 378.331 426.803 377.81C426.803 377.273 426.803 376.76 426.803 376.269C426.819 375.763 426.826 375.303 426.826 374.889C426.842 374.475 426.857 374.161 426.872 373.946C426.903 373.425 426.995 373.072 427.148 372.888C427.302 372.689 427.57 372.589 427.953 372.589C428.352 372.589 428.62 372.689 428.758 372.888C428.912 373.072 429.004 373.402 429.034 373.877C429.05 374.076 429.057 374.345 429.057 374.682C429.073 375.019 429.08 375.387 429.08 375.786C429.08 376.185 429.08 376.591 429.08 377.005C429.096 377.404 429.103 377.772 429.103 378.109C429.103 378.431 429.103 378.699 429.103 378.914C429.103 379.129 429.103 379.236 429.103 379.236C429.103 380.8 429.088 382.241 429.057 383.56C429.042 384.879 429.034 385.929 429.034 386.711C429.065 386.88 429.126 387.041 429.218 387.194C429.326 387.347 429.433 387.501 429.54 387.654C429.663 387.807 429.77 387.968 429.862 388.137C429.954 388.306 430 388.482 430 388.666C430 388.881 429.947 389.072 429.839 389.241C429.732 389.394 429.594 389.525 429.425 389.632C429.272 389.739 429.103 389.824 428.919 389.885C428.751 389.931 428.597 389.954 428.459 389.954ZM424.02 387.93C424.971 387.93 425.699 387.646 426.205 387.079C426.711 386.512 426.964 385.576 426.964 384.273C426.964 381.774 425.975 380.524 423.997 380.524C423.537 380.524 423.093 380.593 422.663 380.731C422.234 380.869 421.851 381.084 421.513 381.375C421.191 381.666 420.923 382.034 420.708 382.479C420.509 382.924 420.409 383.453 420.409 384.066C420.409 384.572 420.478 385.055 420.616 385.515C420.77 385.975 420.992 386.389 421.283 386.757C421.59 387.11 421.966 387.393 422.41 387.608C422.87 387.823 423.407 387.93 424.02 387.93ZM438.656 385.768C438.119 385.768 437.552 385.73 436.954 385.653C436.371 385.561 435.735 385.377 435.045 385.101C435.183 386.036 435.566 386.742 436.195 387.217C436.839 387.692 437.759 387.93 438.955 387.93C439.384 387.93 439.768 387.907 440.105 387.861C440.458 387.8 440.764 387.738 441.025 387.677C441.286 387.6 441.516 387.539 441.715 387.493C441.914 387.432 442.098 387.401 442.267 387.401C442.482 387.401 442.689 387.47 442.888 387.608C443.087 387.731 443.187 387.945 443.187 388.252C443.187 388.635 443.026 388.95 442.704 389.195C442.397 389.44 442.014 389.64 441.554 389.793C441.109 389.931 440.634 390.023 440.128 390.069C439.622 390.13 439.177 390.161 438.794 390.161C437.889 390.161 437.054 390.038 436.287 389.793C435.536 389.548 434.884 389.18 434.332 388.689C433.78 388.183 433.351 387.562 433.044 386.826C432.737 386.09 432.584 385.231 432.584 384.25C432.584 383.299 432.73 382.456 433.021 381.72C433.328 380.984 433.742 380.363 434.263 379.857C434.784 379.351 435.398 378.968 436.103 378.707C436.824 378.446 437.598 378.316 438.426 378.316C439.07 378.316 439.691 378.4 440.289 378.569C440.902 378.738 441.439 378.991 441.899 379.328C442.374 379.665 442.75 380.095 443.026 380.616C443.317 381.122 443.463 381.72 443.463 382.41C443.463 383.023 443.348 383.545 443.118 383.974C442.888 384.403 442.558 384.748 442.129 385.009C441.715 385.27 441.209 385.461 440.611 385.584C440.028 385.707 439.377 385.768 438.656 385.768ZM438.495 380.432C438.081 380.432 437.682 380.486 437.299 380.593C436.916 380.685 436.563 380.846 436.241 381.076C435.934 381.291 435.674 381.582 435.459 381.95C435.244 382.303 435.099 382.747 435.022 383.284C435.605 383.545 436.172 383.729 436.724 383.836C437.276 383.928 437.859 383.974 438.472 383.974C439.377 383.974 440.044 383.867 440.473 383.652C440.918 383.422 441.14 383.016 441.14 382.433C441.14 381.896 440.933 381.429 440.519 381.03C440.12 380.631 439.446 380.432 438.495 380.432ZM447.147 388.597C447.085 388.06 447.047 387.409 447.032 386.642C447.016 385.875 447.009 384.948 447.009 383.859C447.009 382.786 447.009 381.919 447.009 381.26C447.024 380.601 447.07 380.018 447.147 379.512C447.223 378.883 447.338 378.477 447.492 378.293C447.66 378.109 447.875 378.017 448.136 378.017C448.32 378.017 448.481 378.032 448.619 378.063C448.772 378.094 448.902 378.163 449.01 378.27C449.132 378.362 449.224 378.5 449.286 378.684C449.347 378.868 449.378 379.121 449.378 379.443C449.378 379.504 449.385 379.566 449.401 379.627C449.401 379.688 449.401 379.757 449.401 379.834C449.416 379.895 449.424 379.972 449.424 380.064C449.838 379.543 450.305 379.098 450.827 378.73C451.363 378.362 451.969 378.178 452.644 378.178C453.548 378.178 454.001 378.554 454.001 379.305C454.001 379.581 453.939 379.811 453.817 379.995C453.709 380.179 453.548 380.332 453.334 380.455C453.134 380.562 452.897 380.647 452.621 380.708C452.36 380.769 452.069 380.831 451.747 380.892C451.256 380.984 450.796 381.16 450.367 381.421C449.937 381.666 449.646 381.981 449.493 382.364C449.493 382.655 449.493 382.87 449.493 383.008C449.508 383.146 449.516 383.261 449.516 383.353C449.531 383.445 449.539 383.545 449.539 383.652C449.539 383.759 449.539 383.928 449.539 384.158C449.539 384.94 449.523 385.676 449.493 386.366C449.462 387.041 449.431 387.777 449.401 388.574C449.385 388.942 449.339 389.226 449.263 389.425C449.201 389.624 449.117 389.778 449.01 389.885C448.918 389.992 448.81 390.054 448.688 390.069C448.565 390.1 448.442 390.115 448.32 390.115C447.89 390.115 447.599 390.023 447.446 389.839C447.308 389.64 447.208 389.226 447.147 388.597ZM462.487 380.202C461.919 380.202 461.406 380.294 460.946 380.478C460.501 380.662 459.995 380.938 459.428 381.306C459.428 381.628 459.428 382.103 459.428 382.732C459.428 383.345 459.42 384.02 459.405 384.756C459.389 385.477 459.374 386.19 459.359 386.895C459.343 387.6 459.313 388.191 459.267 388.666C459.236 388.973 459.198 389.218 459.152 389.402C459.121 389.571 459.067 389.701 458.991 389.793C458.929 389.885 458.837 389.946 458.715 389.977C458.607 389.992 458.462 390 458.278 390C458.094 390 457.94 389.992 457.818 389.977C457.71 389.946 457.618 389.893 457.542 389.816C457.465 389.724 457.404 389.594 457.358 389.425C457.312 389.256 457.273 389.026 457.243 388.735C457.212 388.459 457.181 388.091 457.151 387.631C457.135 387.171 457.12 386.673 457.105 386.136C457.089 385.584 457.074 385.032 457.059 384.48C457.059 383.913 457.059 383.391 457.059 382.916C457.059 382.134 457.066 381.498 457.082 381.007C457.112 380.516 457.158 380.079 457.22 379.696C457.312 379.052 457.434 378.646 457.588 378.477C457.741 378.308 457.948 378.224 458.209 378.224C458.592 378.224 458.876 378.331 459.06 378.546C459.259 378.761 459.382 379.113 459.428 379.604C459.995 379.113 460.601 378.722 461.245 378.431C461.904 378.14 462.579 377.994 463.269 377.994C463.928 377.994 464.526 378.147 465.063 378.454C465.615 378.761 466.067 379.259 466.42 379.949C466.634 380.363 466.795 380.823 466.903 381.329C467.01 381.82 467.087 382.341 467.133 382.893C467.148 383.138 467.163 383.384 467.179 383.629C467.194 383.859 467.202 384.112 467.202 384.388C467.217 384.649 467.225 384.948 467.225 385.285C467.225 385.622 467.225 386.021 467.225 386.481C467.225 386.972 467.217 387.432 467.202 387.861C467.186 388.29 467.14 388.666 467.064 388.988C467.002 389.295 466.887 389.54 466.719 389.724C466.55 389.893 466.32 389.977 466.029 389.977C465.323 389.977 464.955 389.64 464.925 388.965C464.925 388.919 464.925 388.727 464.925 388.39C464.925 388.037 464.917 387.631 464.902 387.171C464.902 386.711 464.894 386.243 464.879 385.768C464.879 385.293 464.871 384.902 464.856 384.595C464.84 384.35 464.817 384.089 464.787 383.813C464.771 383.522 464.741 383.23 464.695 382.939C464.664 382.648 464.618 382.372 464.557 382.111C464.495 381.835 464.419 381.59 464.327 381.375C464.112 380.869 463.844 380.547 463.522 380.409C463.2 380.271 462.855 380.202 462.487 380.202ZM481.637 390C480.778 390 480.088 389.931 479.567 389.793C479.046 389.655 478.639 389.463 478.348 389.218C478.072 388.957 477.88 388.643 477.773 388.275C477.681 387.907 477.612 387.493 477.566 387.033C477.52 386.496 477.482 385.791 477.451 384.917C477.436 384.028 477.428 383.108 477.428 382.157C477.428 381.697 477.428 381.214 477.428 380.708C477.443 380.187 477.451 379.681 477.451 379.19C477.466 378.684 477.482 378.216 477.497 377.787C477.512 377.358 477.535 376.99 477.566 376.683C477.612 376.208 477.689 375.778 477.796 375.395C477.903 375.012 478.103 374.682 478.394 374.406C478.701 374.13 479.122 373.923 479.659 373.785C480.211 373.632 480.939 373.555 481.844 373.555C483.899 373.555 485.432 373.938 486.444 374.705C487.471 375.456 487.985 376.53 487.985 377.925C487.985 378.646 487.824 379.313 487.502 379.926C487.195 380.539 486.659 380.999 485.892 381.306C486.321 381.383 486.712 381.544 487.065 381.789C487.418 382.034 487.717 382.333 487.962 382.686C488.223 383.023 488.414 383.407 488.537 383.836C488.675 384.25 488.744 384.672 488.744 385.101C488.744 385.653 488.629 386.22 488.399 386.803C488.169 387.37 487.778 387.892 487.226 388.367C486.674 388.842 485.938 389.233 485.018 389.54C484.113 389.847 482.986 390 481.637 390ZM486.444 385.032C486.444 384.48 486.314 384.035 486.053 383.698C485.808 383.361 485.486 383.108 485.087 382.939C484.688 382.755 484.244 382.632 483.753 382.571C483.262 382.51 482.772 382.479 482.281 382.479C481.898 382.479 481.499 382.479 481.085 382.479C480.671 382.479 480.288 382.487 479.935 382.502C479.92 382.824 479.904 383.154 479.889 383.491C479.874 383.828 479.858 384.15 479.843 384.457C479.843 384.748 479.843 385.009 479.843 385.239C479.843 385.454 479.843 385.607 479.843 385.699C479.843 386.113 479.874 386.458 479.935 386.734C479.996 387.01 480.111 387.232 480.28 387.401C480.449 387.57 480.686 387.692 480.993 387.769C481.315 387.83 481.721 387.861 482.212 387.861C483.561 387.861 484.604 387.623 485.34 387.148C486.076 386.673 486.444 385.967 486.444 385.032ZM482.189 375.74C481.683 375.74 481.269 375.786 480.947 375.878C480.64 375.955 480.403 376.062 480.234 376.2C480.081 376.338 479.973 376.507 479.912 376.706C479.866 376.905 479.843 377.12 479.843 377.35V380.57C480.058 380.585 480.28 380.593 480.51 380.593C480.755 380.593 480.985 380.593 481.2 380.593C481.752 380.593 482.289 380.555 482.81 380.478C483.347 380.401 483.83 380.271 484.259 380.087C484.688 379.903 485.033 379.65 485.294 379.328C485.555 379.006 485.685 378.592 485.685 378.086C485.685 377.396 485.401 376.836 484.834 376.407C484.282 375.962 483.4 375.74 482.189 375.74ZM492.356 388.666C492.34 388.114 492.325 387.47 492.31 386.734C492.294 385.998 492.279 385.201 492.264 384.342C492.264 383.483 492.256 382.579 492.241 381.628C492.241 380.677 492.241 379.704 492.241 378.707C492.241 377.618 492.248 376.683 492.264 375.901C492.279 375.119 492.317 374.475 492.379 373.969C492.455 373.463 492.57 373.095 492.724 372.865C492.877 372.62 493.092 372.497 493.368 372.497C493.628 372.497 493.858 372.581 494.058 372.75C494.257 372.919 494.372 373.31 494.403 373.923C494.464 375.027 494.502 376.177 494.518 377.373C494.533 378.554 494.541 379.719 494.541 380.869C494.541 381.559 494.541 382.226 494.541 382.87C494.541 383.499 494.533 384.127 494.518 384.756C494.502 385.369 494.487 385.998 494.472 386.642C494.456 387.286 494.433 387.953 494.403 388.643C494.387 389.011 494.349 389.295 494.288 389.494C494.242 389.693 494.173 389.847 494.081 389.954C493.989 390.061 493.881 390.123 493.759 390.138C493.651 390.169 493.521 390.184 493.368 390.184C493.092 390.184 492.862 390.092 492.678 389.908C492.494 389.709 492.386 389.295 492.356 388.666ZM504.054 378.339C504.928 378.339 505.71 378.477 506.4 378.753C507.09 379.014 507.673 379.389 508.148 379.88C508.639 380.371 509.015 380.969 509.275 381.674C509.536 382.379 509.666 383.169 509.666 384.043C509.666 385.009 509.513 385.875 509.206 386.642C508.915 387.409 508.501 388.06 507.964 388.597C507.443 389.134 506.814 389.548 506.078 389.839C505.358 390.13 504.568 390.276 503.709 390.276C502.774 390.276 501.946 390.115 501.225 389.793C500.52 389.471 499.922 389.034 499.431 388.482C498.956 387.93 498.596 387.294 498.35 386.573C498.105 385.852 497.982 385.093 497.982 384.296C497.982 383.422 498.12 382.625 498.396 381.904C498.688 381.168 499.094 380.539 499.615 380.018C500.152 379.481 500.796 379.067 501.547 378.776C502.299 378.485 503.134 378.339 504.054 378.339ZM503.801 388.16C504.43 388.16 504.967 388.053 505.411 387.838C505.856 387.608 506.216 387.309 506.492 386.941C506.784 386.573 506.991 386.159 507.113 385.699C507.251 385.224 507.32 384.733 507.32 384.227C507.32 383.706 507.251 383.223 507.113 382.778C506.991 382.318 506.791 381.919 506.515 381.582C506.255 381.245 505.91 380.984 505.48 380.8C505.066 380.601 504.568 380.501 503.985 380.501C503.387 380.501 502.866 380.601 502.421 380.8C501.977 380.999 501.601 381.275 501.294 381.628C501.003 381.965 500.781 382.372 500.627 382.847C500.474 383.322 500.397 383.836 500.397 384.388C500.397 385.507 500.681 386.42 501.248 387.125C501.831 387.815 502.682 388.16 503.801 388.16ZM517.859 393.151C518.58 393.151 519.186 393.005 519.676 392.714C520.182 392.438 520.589 392.032 520.895 391.495C521.202 390.974 521.417 390.345 521.539 389.609C521.677 388.858 521.746 388.014 521.746 387.079C521.608 387.57 521.409 387.984 521.148 388.321C520.888 388.658 520.581 388.934 520.228 389.149C519.891 389.348 519.508 389.494 519.078 389.586C518.649 389.678 518.204 389.724 517.744 389.724C517.039 389.724 516.372 389.624 515.743 389.425C515.115 389.226 514.563 388.911 514.087 388.482C513.627 388.053 513.259 387.508 512.983 386.849C512.707 386.174 512.569 385.369 512.569 384.434C512.569 383.529 512.7 382.701 512.96 381.95C513.236 381.183 513.627 380.524 514.133 379.972C514.655 379.42 515.283 378.991 516.019 378.684C516.755 378.377 517.599 378.224 518.549 378.224C519.055 378.224 519.5 378.27 519.883 378.362C520.282 378.454 520.635 378.577 520.941 378.73C521.248 378.883 521.516 379.067 521.746 379.282C521.992 379.497 522.214 379.727 522.413 379.972C522.996 380.708 523.418 381.582 523.678 382.594C523.939 383.591 524.069 384.794 524.069 386.205C524.069 387.248 523.977 388.313 523.793 389.402C523.625 390.491 523.31 391.472 522.85 392.346C522.39 393.235 521.754 393.956 520.941 394.508C520.129 395.075 519.086 395.359 517.813 395.359C517.583 395.359 517.323 395.344 517.031 395.313C516.755 395.298 516.464 395.267 516.157 395.221C515.866 395.175 515.575 395.106 515.283 395.014C514.992 394.937 514.724 394.83 514.478 394.692C514.172 394.523 513.926 394.362 513.742 394.209C513.558 394.056 513.466 393.803 513.466 393.45C513.466 393.159 513.528 392.89 513.65 392.645C513.788 392.415 514.018 392.3 514.34 392.3C514.494 392.3 514.662 392.346 514.846 392.438C515.03 392.53 515.253 392.622 515.513 392.714C515.789 392.821 516.111 392.921 516.479 393.013C516.863 393.105 517.323 393.151 517.859 393.151ZM517.974 387.631C518.572 387.631 519.078 387.524 519.492 387.309C519.922 387.079 520.267 386.78 520.527 386.412C520.803 386.044 521.003 385.63 521.125 385.17C521.263 384.71 521.332 384.25 521.332 383.79C521.332 383.407 521.279 383.023 521.171 382.64C521.079 382.241 520.918 381.881 520.688 381.559C520.458 381.237 520.144 380.976 519.745 380.777C519.347 380.578 518.848 380.478 518.25 380.478C517.238 380.478 516.418 380.785 515.789 381.398C515.176 382.011 514.869 382.916 514.869 384.112C514.869 385.231 515.145 386.098 515.697 386.711C516.249 387.324 517.008 387.631 517.974 387.631Z" fill="#AE8181"/>
<path d="M215.519 372.267C215.534 373.049 215.55 373.877 215.565 374.751C215.596 375.61 215.619 376.476 215.634 377.35C215.649 378.224 215.657 379.098 215.657 379.972C215.672 380.831 215.68 381.659 215.68 382.456C215.68 383.897 215.665 385.331 215.634 386.757C215.619 388.183 215.58 389.632 215.519 391.104C216.086 391.104 216.585 391.104 217.014 391.104C217.459 391.119 217.85 391.127 218.187 391.127C218.524 391.142 218.823 391.158 219.084 391.173C219.36 391.188 219.613 391.204 219.843 391.219C220.472 391.25 220.878 391.357 221.062 391.541C221.261 391.725 221.361 391.955 221.361 392.231C221.361 392.384 221.346 392.515 221.315 392.622C221.3 392.745 221.238 392.852 221.131 392.944C221.024 393.036 220.87 393.113 220.671 393.174C220.472 393.235 220.188 393.281 219.82 393.312C219.375 393.343 218.961 393.366 218.578 393.381C218.195 393.396 217.781 393.404 217.336 393.404C216.339 393.404 215.565 393.304 215.013 393.105C214.476 392.906 214.078 392.561 213.817 392.07C213.572 391.595 213.426 390.951 213.38 390.138C213.349 389.341 213.334 388.336 213.334 387.125V376.246C213.334 375.035 213.349 374.03 213.38 373.233C213.426 372.42 213.572 371.776 213.817 371.301C214.078 370.81 214.476 370.465 215.013 370.266C215.565 370.067 216.339 369.967 217.336 369.967C217.781 369.967 218.195 369.975 218.578 369.99C218.961 370.005 219.375 370.028 219.82 370.059C220.188 370.09 220.472 370.136 220.671 370.197C220.87 370.258 221.024 370.335 221.131 370.427C221.238 370.519 221.3 370.626 221.315 370.749C221.346 370.856 221.361 370.987 221.361 371.14C221.361 371.416 221.261 371.646 221.062 371.83C220.878 372.014 220.472 372.121 219.843 372.152C219.613 372.167 219.36 372.183 219.084 372.198C218.823 372.213 218.524 372.229 218.187 372.244C217.85 372.244 217.459 372.252 217.014 372.267C216.585 372.267 216.086 372.267 215.519 372.267ZM233.463 388.919C232.973 388.244 232.505 387.577 232.06 386.918C231.631 386.243 231.163 385.507 230.657 384.71C230.167 383.913 229.599 383.031 228.955 382.065C228.327 381.084 227.568 379.941 226.678 378.638C226.678 379.788 226.678 380.823 226.678 381.743C226.678 382.648 226.671 383.491 226.655 384.273C226.64 385.055 226.625 385.791 226.609 386.481C226.594 387.171 226.571 387.861 226.54 388.551C226.525 388.919 226.487 389.203 226.425 389.402C226.379 389.601 226.31 389.755 226.218 389.862C226.126 389.969 226.019 390.031 225.896 390.046C225.789 390.077 225.659 390.092 225.505 390.092C225.229 390.092 224.999 390 224.815 389.816C224.631 389.617 224.524 389.203 224.493 388.574C224.417 386.887 224.371 385.201 224.355 383.514C224.355 381.812 224.355 380.056 224.355 378.247C224.355 377.22 224.363 376.415 224.378 375.832C224.409 375.249 224.463 374.812 224.539 374.521C224.631 374.23 224.746 374.046 224.884 373.969C225.038 373.892 225.237 373.854 225.482 373.854C225.728 373.854 226.05 374.046 226.448 374.429C226.847 374.797 227.284 375.288 227.759 375.901C228.235 376.514 228.741 377.22 229.277 378.017C229.829 378.814 230.374 379.635 230.91 380.478C231.447 381.321 231.961 382.157 232.451 382.985C232.957 383.813 233.417 384.564 233.831 385.239C233.816 384.518 233.808 383.729 233.808 382.87C233.808 381.996 233.808 381.03 233.808 379.972C233.808 378.761 233.816 377.764 233.831 376.982C233.847 376.185 233.885 375.556 233.946 375.096C234.023 374.636 234.138 374.314 234.291 374.13C234.445 373.946 234.659 373.854 234.935 373.854C235.196 373.854 235.426 373.938 235.625 374.107C235.825 374.276 235.94 374.667 235.97 375.28C236.001 375.832 236.024 376.323 236.039 376.752C236.055 377.181 236.07 377.611 236.085 378.04C236.101 378.454 236.108 378.891 236.108 379.351C236.108 379.796 236.108 380.302 236.108 380.869C236.108 381.559 236.108 382.218 236.108 382.847C236.108 383.476 236.101 384.097 236.085 384.71C236.07 385.323 236.055 385.944 236.039 386.573C236.024 387.202 236.001 387.861 235.97 388.551C235.955 388.919 235.917 389.203 235.855 389.402C235.809 389.601 235.74 389.755 235.648 389.862C235.556 389.969 235.449 390.031 235.326 390.046C235.219 390.077 235.089 390.092 234.935 390.092C234.675 390.092 234.452 390.015 234.268 389.862C234.084 389.709 233.816 389.394 233.463 388.919ZM244.937 372.267C244.37 372.267 243.864 372.267 243.419 372.267C242.99 372.252 242.606 372.244 242.269 372.244C241.932 372.229 241.625 372.213 241.349 372.198C241.088 372.183 240.843 372.167 240.613 372.152C239.984 372.121 239.57 372.014 239.371 371.83C239.187 371.646 239.095 371.416 239.095 371.14C239.095 370.987 239.103 370.856 239.118 370.749C239.149 370.626 239.218 370.519 239.325 370.427C239.432 370.335 239.586 370.258 239.785 370.197C239.984 370.136 240.268 370.09 240.636 370.059C241.081 370.028 241.495 370.005 241.878 369.99C242.261 369.975 242.675 369.967 243.12 369.967C244.117 369.967 244.883 370.067 245.42 370.266C245.972 370.465 246.371 370.81 246.616 371.301C246.877 371.776 247.022 372.42 247.053 373.233C247.099 374.03 247.122 375.035 247.122 376.246V387.125C247.122 388.336 247.099 389.341 247.053 390.138C247.022 390.951 246.877 391.595 246.616 392.07C246.371 392.561 245.972 392.906 245.42 393.105C244.883 393.304 244.117 393.404 243.12 393.404C242.675 393.404 242.261 393.396 241.878 393.381C241.495 393.366 241.081 393.343 240.636 393.312C240.268 393.281 239.984 393.235 239.785 393.174C239.586 393.113 239.432 393.036 239.325 392.944C239.218 392.852 239.149 392.745 239.118 392.622C239.103 392.515 239.095 392.384 239.095 392.231C239.095 391.955 239.187 391.725 239.371 391.541C239.57 391.357 239.984 391.25 240.613 391.219C240.843 391.204 241.088 391.188 241.349 391.173C241.625 391.158 241.932 391.142 242.269 391.127C242.606 391.127 242.99 391.119 243.419 391.104C243.864 391.104 244.37 391.104 244.937 391.104C244.876 389.632 244.83 388.183 244.799 386.757C244.784 385.331 244.776 383.897 244.776 382.456C244.776 381.659 244.776 380.831 244.776 379.972C244.791 379.098 244.807 378.224 244.822 377.35C244.837 376.476 244.853 375.61 244.868 374.751C244.883 373.877 244.906 373.049 244.937 372.267ZM366.293 372.267C366.308 373.049 366.324 373.877 366.339 374.751C366.37 375.61 366.393 376.476 366.408 377.35C366.423 378.224 366.431 379.098 366.431 379.972C366.446 380.831 366.454 381.659 366.454 382.456C366.454 383.897 366.439 385.331 366.408 386.757C366.393 388.183 366.354 389.632 366.293 391.104C366.86 391.104 367.359 391.104 367.788 391.104C368.233 391.119 368.624 391.127 368.961 391.127C369.298 391.142 369.597 391.158 369.858 391.173C370.134 391.188 370.387 391.204 370.617 391.219C371.246 391.25 371.652 391.357 371.836 391.541C372.035 391.725 372.135 391.955 372.135 392.231C372.135 392.384 372.12 392.515 372.089 392.622C372.074 392.745 372.012 392.852 371.905 392.944C371.798 393.036 371.644 393.113 371.445 393.174C371.246 393.235 370.962 393.281 370.594 393.312C370.149 393.343 369.735 393.366 369.352 393.381C368.969 393.396 368.555 393.404 368.11 393.404C367.113 393.404 366.339 393.304 365.787 393.105C365.25 392.906 364.852 392.561 364.591 392.07C364.346 391.595 364.2 390.951 364.154 390.138C364.123 389.341 364.108 388.336 364.108 387.125V376.246C364.108 375.035 364.123 374.03 364.154 373.233C364.2 372.42 364.346 371.776 364.591 371.301C364.852 370.81 365.25 370.465 365.787 370.266C366.339 370.067 367.113 369.967 368.11 369.967C368.555 369.967 368.969 369.975 369.352 369.99C369.735 370.005 370.149 370.028 370.594 370.059C370.962 370.09 371.246 370.136 371.445 370.197C371.644 370.258 371.798 370.335 371.905 370.427C372.012 370.519 372.074 370.626 372.089 370.749C372.12 370.856 372.135 370.987 372.135 371.14C372.135 371.416 372.035 371.646 371.836 371.83C371.652 372.014 371.246 372.121 370.617 372.152C370.387 372.167 370.134 372.183 369.858 372.198C369.597 372.213 369.298 372.229 368.961 372.244C368.624 372.244 368.233 372.252 367.788 372.267C367.359 372.267 366.86 372.267 366.293 372.267ZM381.293 386.09C380.588 384.541 379.959 383.046 379.407 381.605C378.871 380.148 378.411 378.853 378.027 377.718C377.675 379.619 377.376 381.536 377.13 383.468C376.9 385.4 376.601 387.248 376.233 389.011C376.141 389.41 375.973 389.678 375.727 389.816C375.482 389.939 375.275 390 375.106 390C374.83 390 374.608 389.916 374.439 389.747C374.286 389.578 374.209 389.364 374.209 389.103C374.209 388.75 374.248 388.214 374.324 387.493C374.416 386.757 374.524 385.929 374.646 385.009C374.784 384.089 374.938 383.123 375.106 382.111C375.275 381.099 375.444 380.125 375.612 379.19C375.796 378.239 375.965 377.381 376.118 376.614C376.287 375.847 376.433 375.257 376.555 374.843C376.755 374.138 377.161 373.785 377.774 373.785C378.142 373.785 378.457 373.969 378.717 374.337C378.978 374.69 379.254 375.242 379.545 375.993C379.852 376.729 380.212 377.664 380.626 378.799C381.056 379.934 381.608 381.268 382.282 382.801C382.942 381.268 383.471 379.941 383.869 378.822C384.283 377.687 384.628 376.752 384.904 376.016C385.196 375.265 385.472 374.713 385.732 374.36C385.993 373.992 386.315 373.808 386.698 373.808C387.051 373.808 387.319 373.9 387.503 374.084C387.687 374.253 387.825 374.513 387.917 374.866C388.025 375.295 388.155 375.893 388.308 376.66C388.462 377.411 388.623 378.255 388.791 379.19C388.975 380.11 389.152 381.076 389.32 382.088C389.489 383.1 389.642 384.066 389.78 384.986C389.918 385.906 390.026 386.742 390.102 387.493C390.194 388.229 390.24 388.796 390.24 389.195C390.24 389.44 390.156 389.64 389.987 389.793C389.819 389.931 389.604 390 389.343 390C389.175 390 388.968 389.939 388.722 389.816C388.477 389.678 388.308 389.41 388.216 389.011C388.032 388.137 387.864 387.232 387.71 386.297C387.572 385.362 387.434 384.419 387.296 383.468C387.174 382.502 387.051 381.544 386.928 380.593C386.806 379.627 386.675 378.669 386.537 377.718C386.338 378.331 386.108 379.006 385.847 379.742C385.587 380.478 385.311 381.222 385.019 381.973C384.728 382.709 384.429 383.437 384.122 384.158C383.816 384.879 383.517 385.53 383.225 386.113C383.118 386.312 382.972 386.466 382.788 386.573C382.62 386.665 382.443 386.711 382.259 386.711C382.06 386.711 381.868 386.665 381.684 386.573C381.516 386.466 381.385 386.305 381.293 386.09ZM398.159 372.267C397.592 372.267 397.086 372.267 396.641 372.267C396.212 372.252 395.829 372.244 395.491 372.244C395.154 372.229 394.847 372.213 394.571 372.198C394.311 372.183 394.065 372.167 393.835 372.152C393.207 372.121 392.793 372.014 392.593 371.83C392.409 371.646 392.317 371.416 392.317 371.14C392.317 370.987 392.325 370.856 392.34 370.749C392.371 370.626 392.44 370.519 392.547 370.427C392.655 370.335 392.808 370.258 393.007 370.197C393.207 370.136 393.49 370.09 393.858 370.059C394.303 370.028 394.717 370.005 395.1 369.99C395.484 369.975 395.898 369.967 396.342 369.967C397.339 369.967 398.106 370.067 398.642 370.266C399.194 370.465 399.593 370.81 399.838 371.301C400.099 371.776 400.245 372.42 400.275 373.233C400.321 374.03 400.344 375.035 400.344 376.246V387.125C400.344 388.336 400.321 389.341 400.275 390.138C400.245 390.951 400.099 391.595 399.838 392.07C399.593 392.561 399.194 392.906 398.642 393.105C398.106 393.304 397.339 393.404 396.342 393.404C395.898 393.404 395.484 393.396 395.1 393.381C394.717 393.366 394.303 393.343 393.858 393.312C393.49 393.281 393.207 393.235 393.007 393.174C392.808 393.113 392.655 393.036 392.547 392.944C392.44 392.852 392.371 392.745 392.34 392.622C392.325 392.515 392.317 392.384 392.317 392.231C392.317 391.955 392.409 391.725 392.593 391.541C392.793 391.357 393.207 391.25 393.835 391.219C394.065 391.204 394.311 391.188 394.571 391.173C394.847 391.158 395.154 391.142 395.491 391.127C395.829 391.127 396.212 391.119 396.641 391.104C397.086 391.104 397.592 391.104 398.159 391.104C398.098 389.632 398.052 388.183 398.021 386.757C398.006 385.331 397.998 383.897 397.998 382.456C397.998 381.659 397.998 380.831 397.998 379.972C398.014 379.098 398.029 378.224 398.044 377.35C398.06 376.476 398.075 375.61 398.09 374.751C398.106 373.877 398.129 373.049 398.159 372.267Z" fill="#5C7D96"/>
<rect x="0.5" y="0.5" width="627" height="407" stroke="black"/>
<defs>
<filter id="filter0_d" x="98.2" y="106.576" width="442.4" height="162.736" filterUnits="userSpaceOnUse" color-interpolation-filters="sRGB">
<feFlood flood-opacity="0" result="BackgroundImageFix"/>
<feColorMatrix in="SourceAlpha" type="matrix" values="0 0 0 0 0 0 0 0 0 0 0 0 0 0 0 0 0 0 127 0" result="hardAlpha"/>
<feOffset dx="6" dy="6"/>
<feGaussianBlur stdDeviation="4"/>
<feComposite in2="hardAlpha" operator="out"/>
<feColorMatrix type="matrix" values="0 0 0 0 0 0 0 0 0 0 0 0 0 0 0 0 0 0 0.25 0"/>
<feBlend mode="normal" in2="BackgroundImageFix" result="effect1_dropShadow"/>
<feBlend mode="normal" in="SourceGraphic" in2="effect1_dropShadow" result="shape"/>
</filter>
</defs>
</svg>
